<svg width="16" height="19" viewBox="0 0 16 19" fill="none" xmlns="http://www.w3.org/2000/svg">
<path id="Vector" d="M12.3179 18.0402C12.1949 18.0402 12.0738 18.0033 11.965 17.9327L8.10447 15.434L4.24393 17.9327C4.11885 18.0138 3.97785 18.0501 3.83688 18.0376C3.69591 18.0251 3.56059 17.9643 3.44622 17.8621C3.33185 17.7599 3.24301 17.6203 3.18972 17.4591C3.13644 17.298 3.12085 17.1217 3.14472 16.9502L3.88221 11.6576L0.758434 7.90953C0.657254 7.78808 0.5857 7.63419 0.551867 7.46529C0.518034 7.29638 0.523273 7.11918 0.56699 6.95375C0.610707 6.78832 0.691159 6.64125 0.799243 6.52917C0.907328 6.4171 1.03873 6.3445 1.17859 6.31958L5.4948 5.54738L7.42544 0.732017C7.49501 0.58643 7.59426 0.465734 7.71336 0.381877C7.83247 0.298019 7.9673 0.253906 8.1045 0.253906C8.24171 0.253906 8.37654 0.298019 8.49565 0.381877C8.61475 0.465734 8.714 0.58643 8.78357 0.732017L10.7142 5.54738L15.0304 6.31958C15.1703 6.3445 15.3017 6.4171 15.4098 6.52917C15.5179 6.64125 15.5983 6.78832 15.642 6.95375C15.6857 7.11918 15.691 7.29638 15.6571 7.46529C15.6233 7.63419 15.5518 7.78808 15.4506 7.90953L12.3268 11.6576L13.0643 16.9502C13.0829 17.084 13.0775 17.2212 13.0486 17.3522C13.0197 17.4832 12.9679 17.6048 12.8968 17.7087C12.8257 17.8125 12.7371 17.8959 12.6371 17.9532C12.5371 18.0105 12.4282 18.0402 12.3179 18.0402L12.3179 18.0402Z" fill="#C4D600"/>
</svg>
