<svg width="151" height="30" viewBox="0 0 151 30" fill="none" xmlns="http://www.w3.org/2000/svg">
<g filter="url(#filter0_d_24_66)">
<mask id="path-1-outside-1_24_66" maskUnits="userSpaceOnUse" x="1" y="-3" width="149" height="28" fill="black">
<rect fill="white" x="1" y="-3" width="149" height="28"/>
<path d="M12.2468 21.35C10.7968 21.35 9.42178 21.175 8.12178 20.825C6.82178 20.475 5.76344 20.025 4.94678 19.475L6.89678 15.775C7.78011 16.3417 8.72178 16.775 9.72178 17.075C10.7218 17.3583 11.7218 17.5 12.7218 17.5C13.6718 17.5 14.4051 17.3667 14.9218 17.1C15.4551 16.8167 15.7218 16.4333 15.7218 15.95C15.7218 15.5333 15.4801 15.2083 14.9968 14.975C14.5301 14.7417 13.7968 14.4917 12.7968 14.225C11.6634 13.925 10.7218 13.625 9.97178 13.325C9.22178 13.0083 8.57178 12.5333 8.02178 11.9C7.48844 11.2667 7.22178 10.4333 7.22178 9.4C7.22178 8.15 7.56344 7.05833 8.24678 6.125C8.93011 5.175 9.90511 4.44167 11.1718 3.925C12.4384 3.40833 13.9218 3.15 15.6218 3.15C16.8718 3.15 18.0384 3.28333 19.1218 3.55C20.2051 3.8 21.1384 4.16667 21.9218 4.65L20.1218 8.325C19.4384 7.89167 18.6801 7.56667 17.8468 7.35C17.0301 7.11667 16.1884 7 15.3218 7C14.3384 7 13.5634 7.15833 12.9968 7.475C12.4468 7.79167 12.1718 8.2 12.1718 8.7C12.1718 9.13333 12.4134 9.46667 12.8968 9.7C13.3801 9.93333 14.1301 10.1833 15.1468 10.45C16.2801 10.7333 17.2134 11.025 17.9468 11.325C18.6968 11.625 19.3384 12.0833 19.8718 12.7C20.4051 13.3167 20.6718 14.125 20.6718 15.125C20.6718 16.3583 20.3218 17.45 19.6218 18.4C18.9384 19.3333 17.9551 20.0583 16.6718 20.575C15.4051 21.0917 13.9301 21.35 12.2468 21.35ZM38.6333 7.45L35.9333 21H31.4333L31.7083 19.6C31.125 20.15 30.4666 20.5583 29.7333 20.825C29.0166 21.0917 28.275 21.225 27.5083 21.225C26.025 21.225 24.8416 20.825 23.9583 20.025C23.0916 19.225 22.6583 18.0833 22.6583 16.6C22.6583 16.05 22.7166 15.4917 22.8333 14.925L24.3333 7.45H29.0833L27.6833 14.475C27.6166 14.7917 27.5833 15.1 27.5833 15.4C27.5833 16.5833 28.1916 17.175 29.4083 17.175C30.225 17.175 30.9 16.925 31.4333 16.425C31.9666 15.9083 32.3333 15.15 32.5333 14.15L33.8833 7.45H38.6333ZM111.221 21.35C109.771 21.35 108.396 21.175 107.096 20.825C105.796 20.475 104.738 20.025 103.921 19.475L105.871 15.775C106.755 16.3417 107.696 16.775 108.696 17.075C109.696 17.3583 110.696 17.5 111.696 17.5C112.646 17.5 113.38 17.3667 113.896 17.1C114.43 16.8167 114.696 16.4333 114.696 15.95C114.696 15.5333 114.455 15.2083 113.971 14.975C113.505 14.7417 112.771 14.4917 111.771 14.225C110.638 13.925 109.696 13.625 108.946 13.325C108.196 13.0083 107.546 12.5333 106.996 11.9C106.463 11.2667 106.196 10.4333 106.196 9.4C106.196 8.15 106.538 7.05833 107.221 6.125C107.905 5.175 108.88 4.44167 110.146 3.925C111.413 3.40833 112.896 3.15 114.596 3.15C115.846 3.15 117.013 3.28333 118.096 3.55C119.18 3.8 120.113 4.16667 120.896 4.65L119.096 8.325C118.413 7.89167 117.655 7.56667 116.821 7.35C116.005 7.11667 115.163 7 114.296 7C113.313 7 112.538 7.15833 111.971 7.475C111.421 7.79167 111.146 8.2 111.146 8.7C111.146 9.13333 111.388 9.46667 111.871 9.7C112.355 9.93333 113.105 10.1833 114.121 10.45C115.255 10.7333 116.188 11.025 116.921 11.325C117.671 11.625 118.313 12.0833 118.846 12.7C119.38 13.3167 119.646 14.125 119.646 15.125C119.646 16.3583 119.296 17.45 118.596 18.4C117.913 19.3333 116.93 20.0583 115.646 20.575C114.38 21.0917 112.905 21.35 111.221 21.35ZM131.833 7.225C133.3 7.225 134.483 7.625 135.383 8.425C136.283 9.225 136.733 10.375 136.733 11.875C136.733 12.425 136.675 12.9667 136.558 13.5L135.058 21H130.308L131.708 13.95C131.775 13.6667 131.808 13.3667 131.808 13.05C131.808 11.85 131.183 11.25 129.933 11.25C129.1 11.25 128.416 11.5083 127.883 12.025C127.35 12.525 126.975 13.2833 126.758 14.3L125.408 21H120.658L124.358 2.45H129.108L127.883 8.575C129.033 7.675 130.35 7.225 131.833 7.225ZM140.765 7.45H145.49L142.79 21H138.065L140.765 7.45ZM143.79 5.95C142.973 5.95 142.315 5.725 141.815 5.275C141.315 4.825 141.065 4.26667 141.065 3.6C141.065 2.81667 141.34 2.175 141.89 1.675C142.457 1.15833 143.198 0.899999 144.115 0.899999C144.948 0.899999 145.615 1.11667 146.115 1.55C146.615 1.96667 146.865 2.50833 146.865 3.175C146.865 3.99167 146.582 4.65833 146.015 5.175C145.448 5.69167 144.707 5.95 143.79 5.95Z"/>
</mask>
<path d="M12.2468 21.35C10.7968 21.35 9.42178 21.175 8.12178 20.825C6.82178 20.475 5.76344 20.025 4.94678 19.475L6.89678 15.775C7.78011 16.3417 8.72178 16.775 9.72178 17.075C10.7218 17.3583 11.7218 17.5 12.7218 17.5C13.6718 17.5 14.4051 17.3667 14.9218 17.1C15.4551 16.8167 15.7218 16.4333 15.7218 15.95C15.7218 15.5333 15.4801 15.2083 14.9968 14.975C14.5301 14.7417 13.7968 14.4917 12.7968 14.225C11.6634 13.925 10.7218 13.625 9.97178 13.325C9.22178 13.0083 8.57178 12.5333 8.02178 11.9C7.48844 11.2667 7.22178 10.4333 7.22178 9.4C7.22178 8.15 7.56344 7.05833 8.24678 6.125C8.93011 5.175 9.90511 4.44167 11.1718 3.925C12.4384 3.40833 13.9218 3.15 15.6218 3.15C16.8718 3.15 18.0384 3.28333 19.1218 3.55C20.2051 3.8 21.1384 4.16667 21.9218 4.65L20.1218 8.325C19.4384 7.89167 18.6801 7.56667 17.8468 7.35C17.0301 7.11667 16.1884 7 15.3218 7C14.3384 7 13.5634 7.15833 12.9968 7.475C12.4468 7.79167 12.1718 8.2 12.1718 8.7C12.1718 9.13333 12.4134 9.46667 12.8968 9.7C13.3801 9.93333 14.1301 10.1833 15.1468 10.45C16.2801 10.7333 17.2134 11.025 17.9468 11.325C18.6968 11.625 19.3384 12.0833 19.8718 12.7C20.4051 13.3167 20.6718 14.125 20.6718 15.125C20.6718 16.3583 20.3218 17.45 19.6218 18.4C18.9384 19.3333 17.9551 20.0583 16.6718 20.575C15.4051 21.0917 13.9301 21.35 12.2468 21.35ZM38.6333 7.45L35.9333 21H31.4333L31.7083 19.6C31.125 20.15 30.4666 20.5583 29.7333 20.825C29.0166 21.0917 28.275 21.225 27.5083 21.225C26.025 21.225 24.8416 20.825 23.9583 20.025C23.0916 19.225 22.6583 18.0833 22.6583 16.6C22.6583 16.05 22.7166 15.4917 22.8333 14.925L24.3333 7.45H29.0833L27.6833 14.475C27.6166 14.7917 27.5833 15.1 27.5833 15.4C27.5833 16.5833 28.1916 17.175 29.4083 17.175C30.225 17.175 30.9 16.925 31.4333 16.425C31.9666 15.9083 32.3333 15.15 32.5333 14.15L33.8833 7.45H38.6333ZM111.221 21.35C109.771 21.35 108.396 21.175 107.096 20.825C105.796 20.475 104.738 20.025 103.921 19.475L105.871 15.775C106.755 16.3417 107.696 16.775 108.696 17.075C109.696 17.3583 110.696 17.5 111.696 17.5C112.646 17.5 113.38 17.3667 113.896 17.1C114.43 16.8167 114.696 16.4333 114.696 15.95C114.696 15.5333 114.455 15.2083 113.971 14.975C113.505 14.7417 112.771 14.4917 111.771 14.225C110.638 13.925 109.696 13.625 108.946 13.325C108.196 13.0083 107.546 12.5333 106.996 11.9C106.463 11.2667 106.196 10.4333 106.196 9.4C106.196 8.15 106.538 7.05833 107.221 6.125C107.905 5.175 108.88 4.44167 110.146 3.925C111.413 3.40833 112.896 3.15 114.596 3.15C115.846 3.15 117.013 3.28333 118.096 3.55C119.18 3.8 120.113 4.16667 120.896 4.65L119.096 8.325C118.413 7.89167 117.655 7.56667 116.821 7.35C116.005 7.11667 115.163 7 114.296 7C113.313 7 112.538 7.15833 111.971 7.475C111.421 7.79167 111.146 8.2 111.146 8.7C111.146 9.13333 111.388 9.46667 111.871 9.7C112.355 9.93333 113.105 10.1833 114.121 10.45C115.255 10.7333 116.188 11.025 116.921 11.325C117.671 11.625 118.313 12.0833 118.846 12.7C119.38 13.3167 119.646 14.125 119.646 15.125C119.646 16.3583 119.296 17.45 118.596 18.4C117.913 19.3333 116.93 20.0583 115.646 20.575C114.38 21.0917 112.905 21.35 111.221 21.35ZM131.833 7.225C133.3 7.225 134.483 7.625 135.383 8.425C136.283 9.225 136.733 10.375 136.733 11.875C136.733 12.425 136.675 12.9667 136.558 13.5L135.058 21H130.308L131.708 13.95C131.775 13.6667 131.808 13.3667 131.808 13.05C131.808 11.85 131.183 11.25 129.933 11.25C129.1 11.25 128.416 11.5083 127.883 12.025C127.35 12.525 126.975 13.2833 126.758 14.3L125.408 21H120.658L124.358 2.45H129.108L127.883 8.575C129.033 7.675 130.35 7.225 131.833 7.225ZM140.765 7.45H145.49L142.79 21H138.065L140.765 7.45ZM143.79 5.95C142.973 5.95 142.315 5.725 141.815 5.275C141.315 4.825 141.065 4.26667 141.065 3.6C141.065 2.81667 141.34 2.175 141.89 1.675C142.457 1.15833 143.198 0.899999 144.115 0.899999C144.948 0.899999 145.615 1.11667 146.115 1.55C146.615 1.96667 146.865 2.50833 146.865 3.175C146.865 3.99167 146.582 4.65833 146.015 5.175C145.448 5.69167 144.707 5.95 143.79 5.95Z" fill="#32CD32"/>
<path d="M8.12178 20.825L7.34186 23.7218L8.12178 20.825ZM4.94678 19.475L2.2928 18.0763L1.03711 20.4589L3.27098 21.9633L4.94678 19.475ZM6.89678 15.775L8.51664 13.2499L5.7663 11.4855L4.2428 14.3763L6.89678 15.775ZM9.72178 17.075L8.85973 19.9485L8.8818 19.9551L8.90397 19.9614L9.72178 17.075ZM14.9218 17.1L16.2977 19.7659L16.3135 19.7577L16.3292 19.7493L14.9218 17.1ZM14.9968 14.975L13.6551 17.6583L13.6738 17.6676L13.6925 17.6767L14.9968 14.975ZM12.7968 14.225L13.5698 11.3263L13.5645 11.3249L12.7968 14.225ZM9.97178 13.325L8.80486 16.0887L8.83113 16.0998L8.8576 16.1104L9.97178 13.325ZM8.02178 11.9L5.72704 13.8324L5.74173 13.8498L5.75668 13.8671L8.02178 11.9ZM8.24678 6.125L10.6674 7.89722L10.6748 7.88703L10.6822 7.87679L8.24678 6.125ZM11.1718 3.925L12.3048 6.7028V6.7028L11.1718 3.925ZM19.1218 3.55L18.4047 6.46304L18.4259 6.46826L18.4472 6.47317L19.1218 3.55ZM21.9218 4.65L24.616 5.9696L25.8129 3.52581L23.4971 2.09689L21.9218 4.65ZM20.1218 8.325L18.5152 10.8585L21.343 12.6518L22.816 9.6446L20.1218 8.325ZM17.8468 7.35L17.0226 10.2346L17.0571 10.2444L17.0919 10.2535L17.8468 7.35ZM12.9968 7.475L11.5333 4.85617L11.5165 4.86554L11.4999 4.87513L12.9968 7.475ZM12.8968 9.7L11.5925 12.4017H11.5925L12.8968 9.7ZM15.1468 10.45L14.3856 13.3518L14.4024 13.3562L14.4192 13.3604L15.1468 10.45ZM17.9468 11.325L16.8109 14.1016L16.8217 14.1061L16.8326 14.1104L17.9468 11.325ZM19.6218 18.4L17.2066 16.6204L17.2012 16.6278L19.6218 18.4ZM16.6718 20.575L15.5514 17.792L15.5387 17.7972L16.6718 20.575ZM12.2468 18.35C11.04 18.35 9.92862 18.2046 8.9017 17.9282L7.34186 23.7218C8.91493 24.1454 10.5536 24.35 12.2468 24.35V18.35ZM8.9017 17.9282C7.8119 17.6347 7.0851 17.2982 6.62258 16.9867L3.27098 21.9633C4.44179 22.7518 5.83165 23.3153 7.34186 23.7218L8.9017 17.9282ZM7.60075 20.8737L9.55075 17.1737L4.2428 14.3763L2.2928 18.0763L7.60075 20.8737ZM5.27691 18.3001C6.39416 19.0168 7.59073 19.5678 8.85973 19.9485L10.5838 14.2015C9.85283 13.9822 9.16607 13.6665 8.51664 13.2499L5.27691 18.3001ZM8.90397 19.9614C10.1595 20.3171 11.4345 20.5 12.7218 20.5V14.5C12.009 14.5 11.284 14.3995 10.5396 14.1886L8.90397 19.9614ZM12.7218 20.5C13.8815 20.5 15.1679 20.349 16.2977 19.7659L13.5458 14.4341C13.6138 14.3991 13.5999 14.4207 13.4476 14.4484C13.2984 14.4755 13.0632 14.5 12.7218 14.5V20.5ZM16.3292 19.7493C17.5532 19.0991 18.7218 17.8363 18.7218 15.95H12.7218C12.7218 15.602 12.8298 15.2164 13.0591 14.8868C13.2661 14.5892 13.4794 14.4692 13.5143 14.4507L16.3292 19.7493ZM18.7218 15.95C18.7218 14.0333 17.4651 12.8353 16.301 12.2733L13.6925 17.6767C13.6346 17.6487 13.3796 17.5153 13.1331 17.1839C12.8574 16.8131 12.7218 16.3666 12.7218 15.95H18.7218ZM16.3384 12.2917C15.5892 11.9171 14.6142 11.6048 13.5698 11.3263L12.0238 17.1237C12.9793 17.3785 13.4711 17.5662 13.6551 17.6583L16.3384 12.2917ZM13.5645 11.3249C12.5014 11.0435 11.685 10.7792 11.0859 10.5396L8.8576 16.1104C9.75858 16.4708 10.8255 16.8065 12.0291 17.1251L13.5645 11.3249ZM11.1387 10.5613C10.8238 10.4283 10.5459 10.2312 10.2869 9.93294L5.75668 13.8671C6.59769 14.8355 7.61974 15.5884 8.80486 16.0887L11.1387 10.5613ZM10.3165 9.96759C10.3161 9.9671 10.3 9.95099 10.2791 9.88567C10.2556 9.81244 10.2218 9.66096 10.2218 9.4H4.22178C4.22178 10.9597 4.63396 12.5344 5.72704 13.8324L10.3165 9.96759ZM10.2218 9.4C10.2218 8.73294 10.3914 8.27417 10.6674 7.89722L5.82619 4.35278C4.73551 5.8425 4.22178 7.56705 4.22178 9.4H10.2218ZM10.6822 7.87679C10.9841 7.45707 11.4704 7.04317 12.3048 6.7028L10.0387 1.1472C8.33985 1.84016 6.87613 2.89293 5.81137 4.37321L10.6822 7.87679ZM12.3048 6.7028C13.136 6.36377 14.2191 6.15 15.6218 6.15V0.149999C13.6244 0.149999 11.7409 0.452898 10.0387 1.1472L12.3048 6.7028ZM15.6218 6.15C16.6587 6.15 17.5822 6.26058 18.4047 6.46304L19.8388 0.636955C18.4947 0.306086 17.0849 0.149999 15.6218 0.149999V6.15ZM18.4472 6.47317C19.2762 6.66448 19.8921 6.92277 20.3465 7.20311L23.4971 2.09689C22.3848 1.41056 21.134 0.935522 19.7964 0.626826L18.4472 6.47317ZM19.2276 3.3304L17.4276 7.0054L22.816 9.6446L24.616 5.9696L19.2276 3.3304ZM21.7284 5.79147C20.7657 5.18098 19.717 4.73652 18.6017 4.44653L17.0919 10.2535C17.6432 10.3968 18.1112 10.6024 18.5152 10.8585L21.7284 5.79147ZM18.6709 4.46543C17.5808 4.15396 16.4615 4 15.3218 4V10C15.9154 10 16.4794 10.0794 17.0226 10.2346L18.6709 4.46543ZM15.3218 4C14.0687 4 12.7197 4.19318 11.5333 4.85617L14.4602 10.0938C14.4227 10.1148 14.4548 10.0884 14.6035 10.058C14.7526 10.0276 14.9854 10 15.3218 10V4ZM11.4999 4.87513C10.3102 5.56008 9.17178 6.82941 9.17178 8.7H15.1718C15.1718 9.03713 15.0679 9.3953 14.8663 9.69455C14.6853 9.96341 14.5046 10.0686 14.4937 10.0749L11.4999 4.87513ZM9.17178 8.7C9.17178 9.51384 9.41189 10.3293 9.9242 11.0359C10.4114 11.7079 11.0354 12.1327 11.5925 12.4017L14.201 6.99834C14.2748 7.03398 14.5363 7.17545 14.7819 7.5141C15.0525 7.88739 15.1718 8.31949 15.1718 8.7H9.17178ZM11.5925 12.4017C12.3452 12.765 13.3237 13.0733 14.3856 13.3518L15.9079 7.54816C14.9366 7.29338 14.415 7.10165 14.201 6.99834L11.5925 12.4017ZM14.4192 13.3604C15.4721 13.6237 16.2565 13.8748 16.8109 14.1016L19.0827 8.54836C18.1704 8.17517 17.0882 7.84301 15.8744 7.53957L14.4192 13.3604ZM16.8326 14.1104C17.1331 14.2306 17.38 14.4049 17.6027 14.6625L22.1409 10.7375C21.2969 9.76172 20.2605 9.01937 19.0609 8.53957L16.8326 14.1104ZM17.6027 14.6625C17.6038 14.6637 17.6043 14.6644 17.6058 14.667C17.6075 14.67 17.6141 14.6822 17.6228 14.7086C17.6404 14.7618 17.6718 14.8899 17.6718 15.125H23.6718C23.6718 13.5741 23.246 12.0154 22.1409 10.7375L17.6027 14.6625ZM17.6718 15.125C17.6718 15.7488 17.5088 16.2103 17.2066 16.6204L22.0369 20.1796C23.1348 18.6897 23.6718 16.9679 23.6718 15.125H17.6718ZM17.2012 16.6278C16.9083 17.0279 16.4182 17.4431 15.5514 17.7921L17.7922 23.3579C19.4921 22.6736 20.9686 21.6388 22.0424 20.1722L17.2012 16.6278ZM15.5387 17.7972C14.7043 18.1375 13.6285 18.35 12.2468 18.35V24.35C14.2318 24.35 16.1059 24.0458 17.8048 23.3528L15.5387 17.7972ZM38.6333 7.45L41.5755 8.03626L42.2901 4.45H38.6333V7.45ZM35.9333 21V24H38.3945L38.8755 21.5863L35.9333 21ZM31.4333 21L28.4896 20.4218L27.7867 24H31.4333V21ZM31.7083 19.6L34.652 20.1782L36.4546 11.0017L29.6503 17.4172L31.7083 19.6ZM29.7333 20.825L28.7081 18.0056L28.6976 18.0094L28.6871 18.0133L29.7333 20.825ZM23.9583 20.025L21.9235 22.2294L21.9339 22.2391L21.9445 22.2486L23.9583 20.025ZM22.8333 14.925L25.7717 15.53L25.7732 15.5226L25.7747 15.5152L22.8333 14.925ZM24.3333 7.45V4.45H21.8755L21.3919 6.85976L24.3333 7.45ZM29.0833 7.45L32.0254 8.03633L32.7402 4.45H29.0833V7.45ZM27.6833 14.475L30.6189 15.093L30.6223 15.0772L30.6254 15.0613L27.6833 14.475ZM31.4333 16.425L33.4851 18.6136L33.503 18.5968L33.5207 18.5797L31.4333 16.425ZM32.5333 14.15L29.5924 13.5574L29.5916 13.5617L32.5333 14.15ZM33.8833 7.45V4.45H31.4275L30.9424 6.85743L33.8833 7.45ZM35.6911 6.86374L32.9911 20.4137L38.8755 21.5863L41.5755 8.03626L35.6911 6.86374ZM35.9333 18H31.4333V24H35.9333V18ZM34.377 21.5782L34.652 20.1782L28.7646 19.0218L28.4896 20.4218L34.377 21.5782ZM29.6503 17.4172C29.3559 17.6948 29.0467 17.8825 28.7081 18.0056L30.7585 23.6444C31.8866 23.2342 32.8941 22.6052 33.7663 21.7828L29.6503 17.4172ZM28.6871 18.0133C28.3061 18.1551 27.9188 18.225 27.5083 18.225V24.225C28.6312 24.225 29.7272 24.0282 30.7795 23.6367L28.6871 18.0133ZM27.5083 18.225C26.5795 18.225 26.1776 17.9875 25.9721 17.8014L21.9445 22.2486C23.5057 23.6625 25.4704 24.225 27.5083 24.225V18.225ZM25.9931 17.8206C25.8927 17.7279 25.6583 17.4764 25.6583 16.6H19.6583C19.6583 18.6903 20.2906 20.7221 21.9235 22.2294L25.9931 17.8206ZM25.6583 16.6C25.6583 16.2635 25.6939 15.9079 25.7717 15.53L19.8949 14.32C19.7394 15.0755 19.6583 15.8365 19.6583 16.6H25.6583ZM25.7747 15.5152L27.2747 8.04024L21.3919 6.85976L19.8919 14.3348L25.7747 15.5152ZM24.3333 10.45H29.0833V4.45H24.3333V10.45ZM26.1412 6.86366L24.7412 13.8887L30.6254 15.0613L32.0254 8.03633L26.1412 6.86366ZM24.7477 13.857C24.6415 14.3611 24.5833 14.8768 24.5833 15.4H30.5833C30.5833 15.3232 30.5917 15.2223 30.6189 15.093L24.7477 13.857ZM24.5833 15.4C24.5833 16.4756 24.8647 17.8283 25.9479 18.8818C27.0156 19.9203 28.3581 20.175 29.4083 20.175V14.175C29.2418 14.175 29.6718 14.1339 30.1312 14.5807C30.606 15.0425 30.5833 15.5078 30.5833 15.4H24.5833ZM29.4083 20.175C30.8905 20.175 32.329 19.6975 33.4851 18.6136L29.3815 14.2364C29.3884 14.2299 29.403 14.2177 29.4246 14.2042C29.4464 14.1907 29.4677 14.1807 29.4851 14.1743C29.5021 14.168 29.508 14.1678 29.4984 14.1694C29.4882 14.1711 29.4594 14.175 29.4083 14.175V20.175ZM33.5207 18.5797C34.6268 17.5082 35.1991 16.1182 35.475 14.7383L29.5916 13.5617C29.4675 14.1818 29.3065 14.3085 29.3459 14.2703L33.5207 18.5797ZM35.4742 14.7426L36.8242 8.04257L30.9424 6.85743L29.5924 13.5574L35.4742 14.7426ZM33.8833 10.45H38.6333V4.45H33.8833V10.45ZM107.096 20.825L106.316 23.7218L107.096 20.825ZM103.921 19.475L101.267 18.0763L100.012 20.4589L102.246 21.9633L103.921 19.475ZM105.871 15.775L107.491 13.2499L104.741 11.4855L103.217 14.3763L105.871 15.775ZM108.696 17.075L107.834 19.9485L107.856 19.9551L107.879 19.9614L108.696 17.075ZM113.896 17.1L115.272 19.7659L115.288 19.7577L115.304 19.7493L113.896 17.1ZM113.971 14.975L112.63 17.6583L112.648 17.6676L112.667 17.6767L113.971 14.975ZM111.771 14.225L112.544 11.3263L112.539 11.3249L111.771 14.225ZM108.946 13.325L107.779 16.0887L107.806 16.0998L107.832 16.1104L108.946 13.325ZM106.996 11.9L104.702 13.8324L104.716 13.8498L104.731 13.8671L106.996 11.9ZM107.221 6.125L109.642 7.89722L109.649 7.88703L109.657 7.87679L107.221 6.125ZM110.146 3.925L111.279 6.7028V6.7028L110.146 3.925ZM118.096 3.55L117.379 6.46304L117.401 6.46826L117.422 6.47317L118.096 3.55ZM120.896 4.65L123.591 5.9696L124.788 3.52581L122.472 2.09689L120.896 4.65ZM119.096 8.325L117.49 10.8585L120.318 12.6518L121.791 9.6446L119.096 8.325ZM116.821 7.35L115.997 10.2346L116.032 10.2444L116.066 10.2535L116.821 7.35ZM111.971 7.475L110.508 4.85617L110.491 4.86554L110.474 4.87513L111.971 7.475ZM111.871 9.7L110.567 12.4017L111.871 9.7ZM114.121 10.45L113.36 13.3518L113.377 13.3562L113.394 13.3604L114.121 10.45ZM116.921 11.325L115.785 14.1016L115.796 14.1061L115.807 14.1104L116.921 11.325ZM118.596 18.4L116.181 16.6204L116.176 16.6278L118.596 18.4ZM115.646 20.575L114.526 17.792L114.513 17.7972L115.646 20.575ZM111.221 18.35C110.015 18.35 108.903 18.2046 107.876 17.9282L106.316 23.7218C107.89 24.1454 109.528 24.35 111.221 24.35V18.35ZM107.876 17.9282C106.787 17.6347 106.06 17.2982 105.597 16.9867L102.246 21.9633C103.416 22.7518 104.806 23.3153 106.316 23.7218L107.876 17.9282ZM106.575 20.8737L108.525 17.1737L103.217 14.3763L101.267 18.0763L106.575 20.8737ZM104.252 18.3001C105.369 19.0168 106.565 19.5678 107.834 19.9485L109.558 14.2015C108.827 13.9822 108.141 13.6665 107.491 13.2499L104.252 18.3001ZM107.879 19.9614C109.134 20.3171 110.409 20.5 111.696 20.5V14.5C110.984 14.5 110.259 14.3995 109.514 14.1886L107.879 19.9614ZM111.696 20.5C112.856 20.5 114.142 20.349 115.272 19.7659L112.52 14.4341C112.588 14.3991 112.575 14.4207 112.422 14.4484C112.273 14.4755 112.038 14.5 111.696 14.5V20.5ZM115.304 19.7493C116.528 19.0991 117.696 17.8363 117.696 15.95H111.696C111.696 15.602 111.804 15.2164 112.034 14.8868C112.241 14.5892 112.454 14.4692 112.489 14.4507L115.304 19.7493ZM117.696 15.95C117.696 14.0333 116.44 12.8353 115.276 12.2733L112.667 17.6767C112.609 17.6487 112.354 17.5153 112.108 17.1839C111.832 16.8131 111.696 16.3666 111.696 15.95H117.696ZM115.313 12.2917C114.564 11.9171 113.589 11.6048 112.544 11.3263L110.998 17.1237C111.954 17.3785 112.446 17.5662 112.63 17.6583L115.313 12.2917ZM112.539 11.3249C111.476 11.0435 110.66 10.7792 110.061 10.5396L107.832 16.1104C108.733 16.4708 109.8 16.8065 111.004 17.1251L112.539 11.3249ZM110.113 10.5613C109.798 10.4283 109.52 10.2312 109.261 9.93294L104.731 13.8671C105.572 14.8355 106.594 15.5884 107.779 16.0887L110.113 10.5613ZM109.291 9.96759C109.291 9.9671 109.275 9.95099 109.254 9.88567C109.23 9.81244 109.196 9.66096 109.196 9.4H103.196C103.196 10.9597 103.609 12.5344 104.702 13.8324L109.291 9.96759ZM109.196 9.4C109.196 8.73294 109.366 8.27417 109.642 7.89722L104.801 4.35278C103.71 5.8425 103.196 7.56705 103.196 9.4H109.196ZM109.657 7.87679C109.959 7.45707 110.445 7.04317 111.279 6.7028L109.013 1.1472C107.314 1.84016 105.851 2.89293 104.786 4.37321L109.657 7.87679ZM111.279 6.7028C112.111 6.36377 113.194 6.15 114.596 6.15V0.149999C112.599 0.149999 110.715 0.452898 109.013 1.1472L111.279 6.7028ZM114.596 6.15C115.633 6.15 116.557 6.26058 117.379 6.46304L118.813 0.636955C117.469 0.306086 116.06 0.149999 114.596 0.149999V6.15ZM117.422 6.47317C118.251 6.66448 118.867 6.92277 119.321 7.20311L122.472 2.09689C121.359 1.41056 120.109 0.935522 118.771 0.626826L117.422 6.47317ZM118.202 3.3304L116.402 7.0054L121.791 9.6446L123.591 5.9696L118.202 3.3304ZM120.703 5.79147C119.74 5.18098 118.692 4.73652 117.576 4.44653L116.066 10.2535C116.618 10.3968 117.086 10.6024 117.49 10.8585L120.703 5.79147ZM117.646 4.46543C116.555 4.15396 115.436 4 114.296 4V10C114.89 10 115.454 10.0794 115.997 10.2346L117.646 4.46543ZM114.296 4C113.043 4 111.694 4.19318 110.508 4.85617L113.435 10.0938C113.397 10.1148 113.429 10.0884 113.578 10.058C113.727 10.0276 113.96 10 114.296 10V4ZM110.474 4.87513C109.285 5.56008 108.146 6.82941 108.146 8.7H114.146C114.146 9.03713 114.042 9.3953 113.841 9.69455C113.66 9.96341 113.479 10.0686 113.468 10.0749L110.474 4.87513ZM108.146 8.7C108.146 9.51384 108.386 10.3293 108.899 11.0359C109.386 11.7079 110.01 12.1327 110.567 12.4017L113.176 6.99834C113.249 7.03398 113.511 7.17545 113.756 7.5141C114.027 7.88739 114.146 8.31949 114.146 8.7H108.146ZM110.567 12.4017C111.32 12.765 112.298 13.0733 113.36 13.3518L114.883 7.54816C113.911 7.29338 113.39 7.10165 113.176 6.99834L110.567 12.4017ZM113.394 13.3604C114.447 13.6237 115.231 13.8748 115.785 14.1016L118.057 8.54836C117.145 8.17517 116.063 7.84301 114.849 7.53957L113.394 13.3604ZM115.807 14.1104C116.108 14.2306 116.355 14.4049 116.577 14.6625L121.115 10.7375C120.272 9.76172 119.235 9.01937 118.036 8.53957L115.807 14.1104ZM116.577 14.6625C116.578 14.6637 116.579 14.6644 116.58 14.667C116.582 14.67 116.589 14.6822 116.597 14.7086C116.615 14.7618 116.646 14.8899 116.646 15.125H122.646C122.646 13.5741 122.221 12.0154 121.115 10.7375L116.577 14.6625ZM116.646 15.125C116.646 15.7488 116.483 16.2103 116.181 16.6204L121.012 20.1796C122.109 18.6897 122.646 16.9679 122.646 15.125H116.646ZM116.176 16.6278C115.883 17.0279 115.393 17.4431 114.526 17.7921L116.767 23.3579C118.467 22.6736 119.943 21.6388 121.017 20.1722L116.176 16.6278ZM114.513 17.7972C113.679 18.1375 112.603 18.35 111.221 18.35V24.35C113.206 24.35 115.081 24.0458 116.779 23.3528L114.513 17.7972ZM135.383 8.425L133.39 10.6672V10.6672L135.383 8.425ZM136.558 13.5L133.627 12.8589L133.621 12.8852L133.616 12.9117L136.558 13.5ZM135.058 21V24H137.517L138 21.5883L135.058 21ZM130.308 21L127.365 20.4157L126.654 24H130.308V21ZM131.708 13.95L128.788 13.2629L128.776 13.3141L128.765 13.3657L131.708 13.95ZM127.883 12.025L129.935 14.2136L129.953 14.1968L129.97 14.1797L127.883 12.025ZM126.758 14.3L123.824 13.6747L123.82 13.691L123.817 13.7074L126.758 14.3ZM125.408 21V24H127.864L128.349 21.5926L125.408 21ZM120.658 21L117.716 20.4132L117 24H120.658V21ZM124.358 2.45V-0.550001H121.897L121.416 1.86318L124.358 2.45ZM129.108 2.45L132.05 3.03835L132.767 -0.550001H129.108V2.45ZM127.883 8.575L124.941 7.98665L123.352 15.93L129.732 10.9375L127.883 8.575ZM131.833 10.225C132.732 10.225 133.153 10.4563 133.39 10.6672L137.376 6.18277C135.813 4.79368 133.867 4.225 131.833 4.225V10.225ZM133.39 10.6672C133.497 10.7628 133.733 11.005 133.733 11.875H139.733C139.733 9.74501 139.068 7.6872 137.376 6.18277L133.39 10.6672ZM133.733 11.875C133.733 12.211 133.697 12.5377 133.627 12.8589L139.489 14.1411C139.652 13.3956 139.733 12.639 139.733 11.875H133.733ZM133.616 12.9117L132.116 20.4117L138 21.5883L139.5 14.0883L133.616 12.9117ZM135.058 18H130.308V24H135.058V18ZM133.25 21.5843L134.65 14.5343L128.765 13.3657L127.365 20.4157L133.25 21.5843ZM134.628 14.6371C134.752 14.1098 134.808 13.5779 134.808 13.05H128.808C128.808 13.1554 128.797 13.2235 128.788 13.2629L134.628 14.6371ZM134.808 13.05C134.808 11.9557 134.517 10.5916 133.417 9.53584C132.34 8.50199 130.99 8.25 129.933 8.25V14.25C130.125 14.25 129.713 14.298 129.262 13.8642C128.787 13.4084 128.808 12.9443 128.808 13.05H134.808ZM129.933 8.25C128.424 8.25 126.959 8.74347 125.796 9.87028L129.97 14.1797C129.962 14.1873 129.946 14.2011 129.923 14.2162C129.899 14.2314 129.876 14.2426 129.856 14.2499C129.837 14.257 129.83 14.2575 129.84 14.2558C129.85 14.2541 129.88 14.25 129.933 14.25V8.25ZM125.831 9.83639C124.699 10.898 124.116 12.3022 123.824 13.6747L129.692 14.9253C129.833 14.2645 130 14.152 129.935 14.2136L125.831 9.83639ZM123.817 13.7074L122.467 20.4074L128.349 21.5926L129.699 14.8926L123.817 13.7074ZM125.408 18H120.658V24H125.408V18ZM123.6 21.5868L127.3 3.03682L121.416 1.86318L117.716 20.4132L123.6 21.5868ZM124.358 5.45H129.108V-0.550001H124.358V5.45ZM126.166 1.86165L124.941 7.98665L130.825 9.16335L132.05 3.03835L126.166 1.86165ZM129.732 10.9375C130.345 10.4576 131.008 10.225 131.833 10.225V4.225C129.691 4.225 127.721 4.89242 126.034 6.21248L129.732 10.9375ZM140.765 7.45V4.45H138.304L137.823 6.86374L140.765 7.45ZM145.49 7.45L148.432 8.03626L149.147 4.45H145.49V7.45ZM142.79 21V24H145.251L145.732 21.5863L142.79 21ZM138.065 21L135.123 20.4137L134.408 24H138.065V21ZM141.815 5.275L139.808 7.50488V7.50488L141.815 5.275ZM141.89 1.675L143.908 3.89482L143.911 3.89187L141.89 1.675ZM146.115 1.55L144.15 3.81707L144.172 3.83608L144.195 3.85466L146.115 1.55ZM146.015 5.175L148.036 7.39187V7.39187L146.015 5.175ZM140.765 10.45H145.49V4.45H140.765V10.45ZM142.548 6.86374L139.848 20.4137L145.732 21.5863L148.432 8.03626L142.548 6.86374ZM142.79 18H138.065V24H142.79V18ZM141.007 21.5863L143.707 8.03626L137.823 6.86374L135.123 20.4137L141.007 21.5863ZM143.79 2.95C143.656 2.95 143.622 2.93149 143.654 2.94247C143.67 2.94797 143.697 2.95904 143.73 2.9783C143.764 2.99769 143.795 3.02072 143.822 3.04512L139.808 7.50488C140.971 8.55179 142.399 8.95 143.79 8.95V2.95ZM143.822 3.04512C143.852 3.07198 143.928 3.15339 143.991 3.29276C144.053 3.43277 144.065 3.54913 144.065 3.6H138.065C138.065 5.12586 138.683 6.49183 139.808 7.50488L143.822 3.04512ZM144.065 3.6C144.065 3.56501 144.07 3.61737 144.029 3.71301C144.01 3.7576 143.986 3.79879 143.961 3.83368C143.936 3.8681 143.916 3.88798 143.908 3.89482L139.872 -0.544821C138.66 0.557424 138.065 2.02283 138.065 3.6H144.065ZM143.911 3.89187C143.903 3.89941 143.891 3.90874 143.877 3.91708C143.863 3.92532 143.855 3.92785 143.858 3.92681C143.864 3.92489 143.938 3.9 144.115 3.9V-2.1C142.605 -2.1 141.093 -1.65754 139.869 -0.54187L143.911 3.89187ZM144.115 3.9C144.275 3.9 144.329 3.92096 144.313 3.9156C144.304 3.91271 144.281 3.90418 144.249 3.88633C144.216 3.86827 144.182 3.84487 144.15 3.81707L148.08 -0.71707C146.904 -1.73592 145.477 -2.1 144.115 -2.1V3.9ZM144.195 3.85466C144.134 3.80413 144.032 3.69531 143.954 3.52592C143.877 3.35856 143.865 3.22448 143.865 3.175H149.865C149.865 1.64297 149.239 0.247784 148.036 -0.754664L144.195 3.85466ZM143.865 3.175C143.865 3.23139 143.857 3.1963 143.892 3.11408C143.908 3.07595 143.928 3.03994 143.95 3.00917C143.972 2.97885 143.989 2.96227 143.994 2.95813L148.036 7.39187C149.271 6.26648 149.865 4.77369 149.865 3.175H143.865ZM143.994 2.95813C144.002 2.95059 144.014 2.94125 144.028 2.93292C144.042 2.92468 144.05 2.92215 144.047 2.92319C144.042 2.92511 143.967 2.95 143.79 2.95V8.95C145.3 8.95 146.813 8.50754 148.036 7.39187L143.994 2.95813Z" fill="#112110" mask="url(#path-1-outside-1_24_66)"/>
</g>
<defs>
<filter id="filter0_d_24_66" x="0.946777" y="0.899994" width="149.918" height="28.45" filterUnits="userSpaceOnUse" color-interpolation-filters="sRGB">
<feFlood flood-opacity="0" result="BackgroundImageFix"/>
<feColorMatrix in="SourceAlpha" type="matrix" values="0 0 0 0 0 0 0 0 0 0 0 0 0 0 0 0 0 0 127 0" result="hardAlpha"/>
<feOffset dy="4"/>
<feGaussianBlur stdDeviation="2"/>
<feColorMatrix type="matrix" values="0 0 0 0 0.0674985 0 0 0 0 0.129167 0 0 0 0 0.0618924 0 0 0 0.64 0"/>
<feBlend mode="normal" in2="BackgroundImageFix" result="effect1_dropShadow_24_66"/>
<feBlend mode="normal" in="SourceGraphic" in2="effect1_dropShadow_24_66" result="shape"/>
</filter>
</defs>
</svg>
